<svg id="Layer_1" data-name="Layer 1" xmlns="http://www.w3.org/2000/svg" viewBox="0 0 173 173"><defs><style>.cls-1{fill:#fff;}</style></defs><title>DDV-L-icon-white</title><path class="cls-1" d="M145.16,110.85c-.16-1.19-.34-2.38-.51-3.57-.35-2.38-.68-4.63-.92-6.9a12.72,12.72,0,0,0-4.16-8.89c-.21-.18-.53-.46-.54-1.84a10.92,10.92,0,0,0-.08-1.14l0-.17-.68-6.63-1.1-10.66-.72-7-.72-7-.28-2.74Q134.7,47,134,39.88c-.35-3.36-.71-6.71-1.1-10.06a5.57,5.57,0,0,0-5.59-5.25,6.69,6.69,0,0,0-3.76,1.24l-.11.08-.56.38L117.5,30l-30,21a5.86,5.86,0,0,0-.94-.07,7,7,0,0,0-1,.08q-9.9-6.94-19.82-13.86Q57.54,31.47,49.36,25.8a6.43,6.43,0,0,0-3.7-1.21A5.66,5.66,0,0,0,40,29.77l-.26,2.49c-.42,3.92-.85,7.85-1.25,11.78C38,49,37.48,54,37,59l-.88,8.61-.64,6.3c-.57,5.52-1.14,11-1.67,16.56a1.91,1.91,0,0,1-.12.59,23.12,23.12,0,0,0-2.58,3.09,8.22,8.22,0,0,0-1.47,3.54c-.44,3.09-.85,6.19-1.26,9.29l-.48,3.67c-.44,3.25.76,5.29,3.89,6.61L36,119l7.46,3.15,3.13,2.22c4.09,2.91,8.17,5.81,12.25,8.74,1,.73,2,1.44,3.06,2.15a71.81,71.81,0,0,1,9.42,7.37c.84.82,1.68,1.54,2.5,2.24l.57.49A7,7,0,0,0,77.22,147a36.33,36.33,0,0,0,9.43,1.46h.87l.19,0,.66-.06c.69-.06,1.46-.13,2.22-.24,3.16-.44,7.21-1.39,10.4-4.88a31.21,31.21,0,0,1,4.75-4.15c3.05-2.22,6.14-4.39,9.23-6.57s6.54-4.6,9.79-7a40.61,40.61,0,0,1,10.15-5.7c1.5-.55,2.92-1.17,4.3-1.76.7-.31,1.41-.62,2.12-.91A5.9,5.9,0,0,0,145.16,110.85Zm-6.63-14.7-7.73-1.48c-5.81-1.09-11.62-2.21-17.44-3.27a21.65,21.65,0,0,0-9.13.41l-.6.14s-.06,0-.19-.06L118.65,72.6Zm-41,8.53,1.89-.28c6.81-.69,12.41-2.93,14.85-9.2l.51-1.35,2.74.53,19.07,3.71,0,.21c-.93.36-1.85.73-2.79,1.08-2.49.94-5,1.87-7.49,2.77l-2.65,1.64-13.24,13.1-1.65,1.6L97,130.19l-.22-.06c0-8,.15-16.09.75-24.39Zm31.65-76.11.25.08q3.09,30.08,6.19,60.16l-.19.08-5.56-6.57c-3.34-3.94-6.58-8-10.06-11.8a58.93,58.93,0,0,0-5.91-5.08c-2.1-1.77-4.23-3.52-6.45-5.37Zm-4,1.36.17.14c-1.4,2-2.79,4.09-4.2,6.13L106,58c-.72,1-.72,1-2,.58l-12.92-4.8ZM85.65,54.81l.09,0,.15-.06a1.79,1.79,0,0,1,.23,0l.33,0a1.76,1.76,0,0,1,.33,0,1.79,1.79,0,0,1,.24,0l.14.06.1,0c2.82.91,5.63,1.86,8.44,2.81l8.38,2.83,2.35,1.38L117,71,99.84,92.68c-.08,0-4.51,7.64-4.54,8.6-.25-.2-.42-.32-.56-.45-2.11-2-4.19-4-6.34-5.94l-2-3.09-2,3.09c-2.14,2-4.22,4-6.33,5.94l-.56.45c0-1-4.47-8.64-4.55-8.6L55.93,71l10.55-9.12,2.35-1.38,8.38-2.83C80,56.67,82.83,55.72,85.65,54.81Zm8.79,75.34-6.73-2.24-2.44,0-6.71,2.29c0-.11,0-.36-.06-.6q-.39-12.24-.79-24.49a1.46,1.46,0,0,1,.53-1.28c2.09-1.92,4.14-3.87,6.21-5.81l.82-.73,2.44,0c2.55,2.37,4.94,4.57,7.29,6.8a1.21,1.21,0,0,1,.25.85q-.39,12.15-.81,24.31C94.43,129.65,94.44,130,94.44,130.15Zm-.62,2.77c-1.54,1.65-3,3.28-4.55,4.87a1.22,1.22,0,0,1-.8.25c-1.32,0-2.65,0-4,0a1.36,1.36,0,0,1-.86-.32c-1.48-1.55-2.93-3.14-4.38-4.72A11.71,11.71,0,0,1,93.82,132.92Zm-17.71-2.79-.22.06-11.78-11.7-1.65-1.6-13.24-13.1-2.66-1.64c-2.5-.9-5-1.83-7.49-2.77-.93-.35-1.85-.72-2.78-1.08l0-.21,19.07-3.71,2.73-.53.51,1.35c2.44,6.27,8,8.51,14.86,9.2l1.88.28v1.06C76,114,76.13,122.08,76.11,130.13ZM81.79,53.7l-8.08,2.72c-1.77.59-3.54,1.15-5.3,1.74a.83.83,0,0,1-1.1-.37q-9.5-13.49-19-26.95a1.19,1.19,0,0,1-.26-.78ZM43.54,28.48l.2-.08L65.66,59.49C63.72,61.17,62,62.87,60,64.37,54.19,68.84,49.73,74.48,45.09,80L38.2,88.1a2.06,2.06,0,0,1-.85.66Q40.44,58.61,43.54,28.48Zm10.8,44.15L69.46,91.89c-1.27-.21-2.43-.45-3.59-.6a31.66,31.66,0,0,0-9.94.73c-6.7,1.24-13.43,2.38-20.14,3.55a8.72,8.72,0,0,1-.91,0ZM31.19,111c.52-4,1-7.75,1.52-11.61L45,104Zm109.55,2c-3.94.41-20.33,11.13-20.33,11.13-1.47,1-3,2.12-4.43,3.16-4.22,3-8.46,5.93-12.64,9l-5.85,4.93-.75.68a9.12,9.12,0,0,1-1.43,1.29l-.77.68a1.3,1.3,0,0,1-.56.25,17.41,17.41,0,0,1-7.45,1.37,17.37,17.37,0,0,1-7.44-1.37,1.3,1.3,0,0,1-.56-.25l-.77-.68a9.65,9.65,0,0,1-1.44-1.29c-.24-.23-.5-.45-.75-.68l-5.84-4.93c-4.18-3-8.42-6-12.64-9-1.48-1-3-2.11-4.44-3.16,0,0-16.38-10.72-20.32-11.13l-.1-.15,4.1-2.08L46,105.81a2.24,2.24,0,0,0,.88-.82l.56.26,24.2,24c0,.05,2.24,3.52,2.24,3.52a12.32,12.32,0,0,1,5.44,3.8c.73,1,1.68,1.74,2.44,2.67a2.9,2.9,0,0,0,2.85,1.24,2.51,2.51,0,0,1,.67.08h2.46a2.61,2.61,0,0,1,.67-.08,2.91,2.91,0,0,0,2.86-1.24c.76-.93,1.7-1.72,2.44-2.67a12.29,12.29,0,0,1,5.43-3.8s2.28-3.47,2.24-3.52q12.09-12,24.21-24l.78-.37a2.11,2.11,0,0,0,.94,1l13.58,6.89Zm-12.39-9c4.17-1.57,8.12-3.06,12.25-4.6l1.57,11.6Z"/></svg>